# xmcd
#
# Track frame offsets: 
#        150
#        21831
#        45301
#        82576
#        106811
#        133889
#        161557
#        194023
#        218159
#        239756
#        269264
#
# Disc length: 4006 seconds
#
# Revision: 0
# Processed by: cddbd v1.5.2PL0 Copyright (c) Steve Scherf et al.
# Submitted via: ExactAudioCopy v1.0b4
#
DISCID=930fa40b
DTITLE=Bill Magee - Blues From The Cross Roads
DYEAR=2018
DGENRE=Blues
TTITLE0=Night Train
TTITLE1=Standing At The Cross Roads
TTITLE2=Got To Be Some Changes Made
TTITLE3=On My Way To School
TTITLE4=Low Down Dirty Blues Pt. 2
TTITLE5=Sweet Home Chicago
TTITLE6=Angel Of Mercy
TTITLE7=Do Your Thang
TTITLE8=Bright Lights Big City
TTITLE9=Summer Time
TTITLE10=Thrill Is Gone
EXTD=
EXTT0=
EXTT1=
EXTT2=
EXTT3=
EXTT4=
EXTT5=
EXTT6=
EXTT7=
EXTT8=
EXTT9=
EXTT10=
PLAYORDER=
